<svg xmlns="http://www.w3.org/2000/svg" version="1.1" xmlns:xlink="http://www.w3.org/1999/xlink" xmlns:svgjs="http://svgjs.dev/svgjs" width="1000" height="217" viewBox="0 0 1000 217"><g transform="matrix(1,0,0,1,-0.6060434349731736,0.5755305419120162)"><svg viewBox="0 0 396 86" data-background-color="#010c80" preserveAspectRatio="xMidYMid meet" height="217" width="1000" xmlns="http://www.w3.org/2000/svg" xmlns:xlink="http://www.w3.org/1999/xlink"><g id="tight-bounds" transform="matrix(1,0,0,1,0.23999320024938697,-0.22809044518172072)"><svg viewBox="0 0 395.52 86.45617900172115" height="86.45617900172115" width="395.52"><g><svg viewBox="0 0 395.52 86.45617900172115" height="86.45617900172115" width="395.52"><g><svg viewBox="0 0 395.52 86.45617900172115" height="86.45617900172115" width="395.52"><g id="textblocktransform"><svg viewBox="0 0 395.52 86.45617900172115" height="86.45617900172115" width="395.52" id="textblock"><g><svg viewBox="0 0 395.52 86.45617900172115" height="86.45617900172115" width="395.52"><g transform="matrix(1,0,0,1,0,0)"><svg width="395.52" viewBox="2.75 -47 319.5199890136719 69.8499984741211" height="86.45617900172115" data-palette-color="#77d4fc"><path d="M49.05-11.15Q49.7-11.15 50.08-10.55 50.45-9.95 50.45-8.9L50.45-8.9Q50.45-6.95 49.5-5.8L49.5-5.8Q47.1-2.9 44.65-1.33 42.2 0.25 38.85 0.25L38.85 0.25Q35.6 0.25 33.33-1.5 31.05-3.25 29-7.5L29-7.5Q27.35-10.9 26.4-12.53 25.45-14.15 24.53-14.85 23.6-15.55 22.25-15.7L22.25-15.7Q22.05-14.65 21.1-9.1L21.1-9.1Q20.7-6.6 20.6-6.05L20.6-6.05Q20.1-3 18.6-1.38 17.1 0.25 14.05 0.25L14.05 0.25Q10.7 0.25 8.13-1.73 5.55-3.7 4.15-7.23 2.75-10.75 2.75-15.25L2.75-15.25Q2.75-23.65 5.68-29.75 8.6-35.85 13.88-39.08 19.15-42.3 26.05-42.3L26.05-42.3Q30.85-42.3 34.1-40.85 37.35-39.4 38.93-36.85 40.5-34.3 40.5-31.1L40.5-31.1Q40.5-28.3 39.18-25.63 37.85-22.95 35.2-20.9 32.55-18.85 28.75-17.85L28.75-17.85Q31.15-17.2 32.45-15.75 33.75-14.3 35.05-11.5L35.05-11.5Q36.45-8.5 37.83-7.1 39.2-5.7 41-5.7L41-5.7Q42.6-5.7 44.05-6.78 45.5-7.85 47.7-10.45L47.7-10.45Q48.3-11.15 49.05-11.15L49.05-11.15ZM14-8.25L15.35-15.75Q13.65-15.75 13.03-16.55 12.4-17.35 12.4-18.35L12.4-18.35Q12.4-19.55 13.18-20.25 13.95-20.95 14.95-20.95L14.95-20.95 16.2-20.95Q17-25.85 17.7-29.4L17.7-29.4Q18.35-32.65 21.9-32.65L21.9-32.65Q24.75-32.65 24.75-30.1L24.75-30.1Q24.75-29.55 24.7-29.25L24.7-29.25 23.2-20.95Q25.9-21.1 28.13-22.25 30.35-23.4 31.68-25.45 33-27.5 33-30.1L33-30.1Q33-33.25 30.85-35.05 28.7-36.85 24.55-36.85L24.55-36.85Q19.65-36.85 15.98-34.43 12.3-32 10.25-27.23 8.2-22.45 8.2-15.6L8.2-15.6Q8.2-12.4 8.85-10.1 9.5-7.8 10.45-6.65 11.4-5.5 12.25-5.5L12.25-5.5Q12.9-5.5 13.33-6.15 13.75-6.8 14-8.25L14-8.25ZM67.7-11.15Q68.35-11.15 68.72-10.55 69.1-9.95 69.1-8.9L69.1-8.9Q69.1-6.9 68.15-5.8L68.15-5.8Q66.3-3.55 62.92-1.65 59.55 0.25 55.7 0.25L55.7 0.25Q50.45 0.25 47.55-2.6 44.65-5.45 44.65-10.4L44.65-10.4Q44.65-13.85 46.1-16.82 47.55-19.8 50.12-21.55 52.7-23.3 55.95-23.3L55.95-23.3Q58.85-23.3 60.6-21.58 62.35-19.85 62.35-16.9L62.35-16.9Q62.35-13.45 59.87-10.98 57.4-8.5 51.5-7.05L51.5-7.05Q52.75-4.75 56.25-4.75L56.25-4.75Q58.5-4.75 61.37-6.33 64.25-7.9 66.35-10.45L66.35-10.45Q66.95-11.15 67.7-11.15L67.7-11.15ZM55.1-18.4Q53.25-18.4 51.97-16.25 50.7-14.1 50.7-11.05L50.7-11.05 50.7-10.95Q53.65-11.65 55.35-13.05 57.05-14.45 57.05-16.3L57.05-16.3Q57.05-17.25 56.52-17.82 56-18.4 55.1-18.4L55.1-18.4ZM74.6 0.25Q69.7 0.25 66.97-2.53 64.25-5.3 64.25-9.85L64.25-9.85Q64.25-13.9 65.85-16.95 67.45-20 70-21.65 72.55-23.3 75.35-23.3L75.35-23.3Q78.1-23.3 79.62-21.68 81.15-20.05 81.15-17.5L81.15-17.5Q81.15-15.4 80.22-13.95 79.3-12.5 77.8-12.5L77.8-12.5Q76.85-12.5 76.27-12.95 75.7-13.4 75.7-14.2L75.7-14.2Q75.7-14.55 75.8-15 75.9-15.45 75.95-15.65L75.95-15.65Q76.2-16.4 76.2-17.05L76.2-17.05Q76.2-17.7 75.87-18.05 75.55-18.4 74.95-18.4L74.95-18.4Q73.8-18.4 72.8-17.38 71.8-16.35 71.2-14.6 70.6-12.85 70.6-10.75L70.6-10.75Q70.6-4.95 75.65-4.95L75.65-4.95Q77.7-4.95 80.07-6.33 82.45-7.7 84.75-10.45L84.75-10.45Q85.35-11.15 86.1-11.15L86.1-11.15Q86.75-11.15 87.12-10.55 87.5-9.95 87.5-8.9L87.5-8.9Q87.5-7 86.55-5.8L86.55-5.8Q84.2-2.9 80.92-1.33 77.65 0.25 74.6 0.25L74.6 0.25ZM89.99-26.6Q87.89-26.6 86.84-27.58 85.79-28.55 85.79-30.3L85.79-30.3Q85.79-32.05 87.17-33.23 88.54-34.4 90.59-34.4L90.59-34.4Q92.44-34.4 93.59-33.5 94.74-32.6 94.74-30.95L94.74-30.95Q94.74-28.95 93.44-27.78 92.14-26.6 89.99-26.6L89.99-26.6ZM89.59 0.25Q86.34 0.25 84.87-2.05 83.39-4.35 83.39-8.15L83.39-8.15Q83.39-10.4 83.97-13.93 84.54-17.45 85.44-20.5L85.44-20.5Q85.89-22.1 86.64-22.7 87.39-23.3 89.04-23.3L89.04-23.3Q91.59-23.3 91.59-21.6L91.59-21.6Q91.59-20.35 90.64-15.8L90.64-15.8Q89.44-10.3 89.44-8.35L89.44-8.35Q89.44-6.85 89.84-6.05 90.24-5.25 91.19-5.25L91.19-5.25Q92.09-5.25 93.44-6.5 94.79-7.75 97.04-10.45L97.04-10.45Q97.64-11.15 98.39-11.15L98.39-11.15Q99.04-11.15 99.42-10.55 99.79-9.95 99.79-8.9L99.79-8.9Q99.79-6.9 98.84-5.8L98.84-5.8Q93.89 0.25 89.59 0.25L89.59 0.25ZM122.44-11.15Q123.09-11.15 123.47-10.55 123.84-9.95 123.84-8.9L123.84-8.9Q123.84-6.9 122.89-5.8L122.89-5.8Q120.74-3.15 118.27-1.45 115.79 0.25 112.64 0.25L112.64 0.25Q109.99 0.25 108.34-1.65L108.34-1.65Q105.49 0.2 102.39 0.25L102.39 0.25Q101.74 9.9 99.44 16.38 97.14 22.85 92.69 22.85L92.69 22.85Q89.99 22.85 88.69 20.9 87.39 18.95 87.39 15.5L87.39 15.5Q87.39 10.6 89.64 4.08 91.89-2.45 96.59-10.3L96.59-10.3Q96.59-17.6 96.49-20.45L96.49-20.45Q96.44-21.9 97.64-22.75 98.84-23.6 100.64-23.6L100.64-23.6Q101.69-23.6 102.17-23.18 102.64-22.75 102.69-21.5L102.69-21.5Q102.69-20.25 102.74-19.65L102.74-19.65Q104.34-21.65 105.89-22.53 107.44-23.4 109.19-23.4L109.19-23.4Q111.99-23.4 113.77-21.15 115.54-18.9 115.54-15.25L115.54-15.25Q115.54-12.6 114.69-10.1 113.84-7.6 112.34-5.55L112.34-5.55Q113.39-5.25 114.09-5.25L114.09-5.25Q115.74-5.25 117.24-6.45 118.74-7.65 121.09-10.45L121.09-10.45Q121.69-11.15 122.44-11.15L122.44-11.15ZM102.64-4.55Q104.44-4.95 105.97-6.53 107.49-8.1 108.39-10.43 109.29-12.75 109.29-15.3L109.29-15.3Q109.29-16.8 108.69-17.57 108.09-18.35 107.09-18.35L107.09-18.35Q105.29-18.35 102.74-14.55L102.74-14.55Q102.69-12.35 102.69-8.1L102.69-8.1Q102.69-5.8 102.64-4.55L102.64-4.55ZM93.09 17.95Q94.44 17.95 95.34 12.08 96.24 6.2 96.49-2.55L96.49-2.55Q94.34 2.45 93.09 7 91.84 11.55 91.84 14.65L91.84 14.65Q91.84 16.25 92.22 17.1 92.59 17.95 93.09 17.95L93.09 17.95ZM142.09-11.15Q142.74-11.15 143.11-10.55 143.49-9.95 143.49-8.9L143.49-8.9Q143.49-6.9 142.54-5.8L142.54-5.8Q140.69-3.55 137.31-1.65 133.94 0.25 130.09 0.25L130.09 0.25Q124.84 0.25 121.94-2.6 119.04-5.45 119.04-10.4L119.04-10.4Q119.04-13.85 120.49-16.82 121.94-19.8 124.51-21.55 127.09-23.3 130.34-23.3L130.34-23.3Q133.24-23.3 134.99-21.58 136.74-19.85 136.74-16.9L136.74-16.9Q136.74-13.45 134.26-10.98 131.79-8.5 125.89-7.05L125.89-7.05Q127.14-4.75 130.64-4.75L130.64-4.75Q132.89-4.75 135.76-6.33 138.64-7.9 140.74-10.45L140.74-10.45Q141.34-11.15 142.09-11.15L142.09-11.15ZM129.49-18.4Q127.64-18.4 126.36-16.25 125.09-14.1 125.09-11.05L125.09-11.05 125.09-10.95Q128.04-11.65 129.74-13.05 131.44-14.45 131.44-16.3L131.44-16.3Q131.44-17.25 130.91-17.82 130.39-18.4 129.49-18.4L129.49-18.4ZM166.63 0.4Q159.98 0.4 155.98-2.13 151.98-4.65 151.98-9.85L151.98-9.85Q151.98-12.6 152.93-14.05 153.88-15.5 155.73-15.5L155.73-15.5Q157.08-15.5 157.93-14.8 158.78-14.1 158.78-13L158.78-13Q158.78-12 158.63-11.25L158.63-11.25Q158.63-11.05 158.56-10.55 158.48-10.05 158.48-9.5L158.48-9.5Q158.48-7.25 160.76-6.15 163.03-5.05 167.13-5.05L167.13-5.05Q171.38-5.05 173.78-6.58 176.18-8.1 176.18-10.85L176.18-10.85Q176.18-12.55 175.08-13.78 173.98-15 172.33-15.83 170.68-16.65 167.68-17.85L167.68-17.85Q163.83-19.35 161.41-20.7 158.98-22.05 157.26-24.38 155.53-26.7 155.53-30.15L155.53-30.15Q155.53-33.75 157.46-36.55 159.38-39.35 163.01-40.9 166.63-42.45 171.53-42.45L171.53-42.45Q175.18-42.45 178.23-41.38 181.28-40.3 183.11-38.1 184.93-35.9 184.93-32.7L184.93-32.7Q184.93-29.55 183.98-27.95 183.03-26.35 181.18-26.35L181.18-26.35Q179.88-26.35 179.01-27.15 178.13-27.95 178.13-29.05L178.13-29.05Q178.13-30 178.28-30.8L178.28-30.8Q178.43-32.3 178.43-32.7L178.43-32.7Q178.43-34.8 176.38-35.9 174.33-37 171.28-37L171.28-37Q166.98-37 164.71-35.43 162.43-33.85 162.43-31L162.43-31Q162.43-29.1 163.61-27.75 164.78-26.4 166.53-25.5 168.28-24.6 171.43-23.35L171.43-23.35Q175.23-21.8 177.53-20.55 179.83-19.3 181.46-17.15 183.08-15 183.08-11.85L183.08-11.85Q183.08-5.95 178.61-2.78 174.13 0.4 166.63 0.4L166.63 0.4ZM214.58-11.15Q215.23-11.15 215.61-10.55 215.98-9.95 215.98-8.9L215.98-8.9Q215.98-6.9 215.03-5.8L215.03-5.8Q212.73-3.15 210.31-1.45 207.88 0.25 204.78 0.25L204.78 0.25Q202.23 0.25 200.93-1.23 199.63-2.7 199.63-5.5L199.63-5.5Q199.63-6.9 200.33-10.5L200.33-10.5Q200.98-13.65 200.98-14.85L200.98-14.85Q200.98-15.65 200.43-15.65L200.43-15.65Q199.78-15.65 198.58-13.98 197.38-12.3 196.18-9.55 194.98-6.8 194.23-3.75L194.23-3.75Q193.28 0.25 189.53 0.25L189.53 0.25Q188.03 0.25 187.56-0.83 187.08-1.9 187.08-4.7L187.08-4.7Q187.08-6.3 187.13-7.25L187.13-7.25 187.18-11.25Q187.18-18.95 188.76-27.3 190.33-35.65 193.41-41.33 196.48-47 200.78-47L200.78-47Q203.08-47 204.51-45.03 205.93-43.05 205.93-39.9L205.93-39.9Q205.93-34.85 202.98-29.43 200.03-24 193.38-16.75L193.38-16.75Q193.23-14.15 193.23-11.4L193.23-11.4Q194.88-15.65 196.91-18.32 198.93-21 200.91-22.15 202.88-23.3 204.53-23.3L204.53-23.3Q207.78-23.3 207.78-20.05L207.78-20.05Q207.78-18.1 206.68-13L206.68-13Q205.73-8.65 205.73-7.25L205.73-7.25Q205.73-5.25 207.18-5.25L207.18-5.25Q208.18-5.25 209.56-6.48 210.93-7.7 213.23-10.45L213.23-10.45Q213.83-11.15 214.58-11.15L214.58-11.15ZM199.73-42.05Q198.83-42.05 197.73-39.48 196.63-36.9 195.61-32.52 194.58-28.15 193.93-23L193.93-23Q197.03-26.65 199.06-30.95 201.08-35.25 201.08-38.75L201.08-38.75Q201.08-40.35 200.73-41.2 200.38-42.05 199.73-42.05L199.73-42.05ZM218.08 0.25Q214.98 0.25 213.13-2 211.28-4.25 211.28-7.9L211.28-7.9Q211.28-11.9 213.13-15.48 214.98-19.05 218.05-21.23 221.13-23.4 224.58-23.4L224.58-23.4Q225.68-23.4 226.05-22.98 226.43-22.55 226.68-21.45L226.68-21.45Q227.73-21.65 228.88-21.65L228.88-21.65Q231.33-21.65 231.33-19.9L231.33-19.9Q231.33-18.85 230.58-14.9L230.58-14.9Q229.43-9.15 229.43-6.9L229.43-6.9Q229.43-6.15 229.8-5.7 230.18-5.25 230.78-5.25L230.78-5.25Q231.73-5.25 233.08-6.48 234.43-7.7 236.73-10.45L236.73-10.45Q237.33-11.15 238.08-11.15L238.08-11.15Q238.73-11.15 239.1-10.55 239.48-9.95 239.48-8.9L239.48-8.9Q239.48-6.9 238.53-5.8L238.53-5.8Q236.48-3.25 234.18-1.5 231.88 0.25 229.73 0.25L229.73 0.25Q228.08 0.25 226.7-0.88 225.33-2 224.63-3.95L224.63-3.95Q222.03 0.25 218.08 0.25L218.08 0.25ZM219.88-4.8Q220.98-4.8 221.98-6.1 222.98-7.4 223.43-9.55L223.43-9.55 225.28-18.75Q223.18-18.7 221.4-17.18 219.63-15.65 218.58-13.15 217.53-10.65 217.53-7.85L217.53-7.85Q217.53-6.3 218.15-5.55 218.78-4.8 219.88-4.8L219.88-4.8ZM238.98 0.25Q237.08 0.25 236.3-1.75 235.53-3.75 235.53-8.15L235.53-8.15Q235.53-14.65 237.38-20.5L237.38-20.5Q237.83-21.95 238.85-22.63 239.88-23.3 241.73-23.3L241.73-23.3Q242.73-23.3 243.13-23.05 243.53-22.8 243.53-22.1L243.53-22.1Q243.53-21.3 242.78-18.5L242.78-18.5Q242.28-16.5 241.98-15 241.68-13.5 241.48-11.3L241.48-11.3Q243.13-15.6 245.18-18.3 247.23-21 249.2-22.15 251.18-23.3 252.83-23.3L252.83-23.3Q256.08-23.3 256.08-20.05L256.08-20.05Q256.08-19.4 255.63-16.9L255.63-16.9Q255.23-14.9 255.23-14.4L255.23-14.4Q255.23-12.65 256.48-12.65L256.48-12.65Q257.88-12.65 260.08-14.85L260.08-14.85Q260.73-15.5 261.43-15.5L261.43-15.5Q262.08-15.5 262.45-14.93 262.83-14.35 262.83-13.4L262.83-13.4Q262.83-11.55 261.83-10.5L261.83-10.5Q260.43-9.05 258.55-8.03 256.68-7 254.58-7L254.58-7Q251.93-7 250.55-8.35 249.18-9.7 249.18-12L249.18-12Q249.18-12.75 249.33-13.5L249.33-13.5Q249.43-14.5 249.43-14.85L249.43-14.85Q249.43-15.65 248.88-15.65L248.88-15.65Q248.13-15.65 246.9-13.98 245.68-12.3 244.48-9.55 243.28-6.8 242.53-3.75L242.53-3.75Q241.98-1.4 241.25-0.58 240.53 0.25 238.98 0.25L238.98 0.25ZM264.72-26.6Q262.62-26.6 261.57-27.58 260.52-28.55 260.52-30.3L260.52-30.3Q260.52-32.05 261.9-33.23 263.27-34.4 265.32-34.4L265.32-34.4Q267.17-34.4 268.32-33.5 269.47-32.6 269.47-30.95L269.47-30.95Q269.47-28.95 268.17-27.78 266.87-26.6 264.72-26.6L264.72-26.6ZM264.32 0.25Q261.07 0.25 259.6-2.05 258.12-4.35 258.12-8.15L258.12-8.15Q258.12-10.4 258.7-13.93 259.27-17.45 260.17-20.5L260.17-20.5Q260.62-22.1 261.37-22.7 262.12-23.3 263.77-23.3L263.77-23.3Q266.32-23.3 266.32-21.6L266.32-21.6Q266.32-20.35 265.37-15.8L265.37-15.8Q264.17-10.3 264.17-8.35L264.17-8.35Q264.17-6.85 264.57-6.05 264.97-5.25 265.92-5.25L265.92-5.25Q266.82-5.25 268.17-6.5 269.52-7.75 271.77-10.45L271.77-10.45Q272.37-11.15 273.12-11.15L273.12-11.15Q273.77-11.15 274.15-10.55 274.52-9.95 274.52-8.9L274.52-8.9Q274.52-6.9 273.57-5.8L273.57-5.8Q268.62 0.25 264.32 0.25L264.32 0.25ZM274.02 0.25Q272.12 0.25 271.35-1.75 270.57-3.75 270.57-8.15L270.57-8.15Q270.57-14.65 272.42-20.5L272.42-20.5Q272.87-21.95 273.9-22.63 274.92-23.3 276.77-23.3L276.77-23.3Q277.77-23.3 278.17-23.05 278.57-22.8 278.57-22.1L278.57-22.1Q278.57-21.3 277.82-18.5L277.82-18.5Q277.32-16.5 277.02-15 276.72-13.5 276.52-11.3L276.52-11.3Q278.17-15.6 280.22-18.3 282.27-21 284.25-22.15 286.22-23.3 287.87-23.3L287.87-23.3Q291.12-23.3 291.12-20.05L291.12-20.05Q291.12-18.1 290.02-13L290.02-13Q289.07-8.65 289.07-7.25L289.07-7.25Q289.07-5.25 290.52-5.25L290.52-5.25Q291.52-5.25 292.9-6.48 294.27-7.7 296.57-10.45L296.57-10.45Q297.17-11.15 297.92-11.15L297.92-11.15Q298.57-11.15 298.95-10.55 299.32-9.95 299.32-8.9L299.32-8.9Q299.32-6.9 298.37-5.8L298.37-5.8Q296.22-3.15 293.75-1.45 291.27 0.25 288.12 0.25L288.12 0.25Q285.57 0.25 284.27-1.23 282.97-2.7 282.97-5.5L282.97-5.5Q282.97-6.9 283.67-10.5L283.67-10.5Q284.32-13.65 284.32-14.85L284.32-14.85Q284.32-15.65 283.77-15.65L283.77-15.65Q283.12-15.65 281.95-13.98 280.77-12.3 279.55-9.55 278.32-6.8 277.57-3.75L277.57-3.75Q277.02-1.4 276.3-0.58 275.57 0.25 274.02 0.25L274.02 0.25ZM320.87-11.05Q321.52-11.05 321.89-10.43 322.27-9.8 322.27-8.85L322.27-8.85Q322.27-7.7 321.92-7.05 321.57-6.4 320.82-5.9L320.82-5.9Q316.52-3 314.52-1.6L314.52-1.6 311.32 0.55Q309.42 10.9 306.34 16.82 303.27 22.75 298.52 22.75L298.52 22.75Q295.97 22.75 294.37 21.18 292.77 19.6 292.77 17.05L292.77 17.05Q292.77 13.5 295.57 9.43 298.37 5.35 306.07-0.6L306.07-0.6 306.37-2.55Q305.52-1.2 304.14-0.48 302.77 0.25 301.42 0.25L301.42 0.25Q298.32 0.25 296.47-2 294.62-4.25 294.62-7.9L294.62-7.9Q294.62-11.9 296.47-15.48 298.32-19.05 301.39-21.23 304.47-23.4 307.92-23.4L307.92-23.4Q309.02-23.4 309.39-22.98 309.77-22.55 310.02-21.45L310.02-21.45Q310.97-21.65 312.22-21.65L312.22-21.65Q313.47-21.65 313.99-21.28 314.52-20.9 314.52-19.8L314.52-19.8Q314.52-19.2 314.47-18.85L314.47-18.85Q314.27-17.3 313.22-11L313.22-11Q313.02-9.8 312.79-8.38 312.57-6.95 312.32-5.35L312.32-5.35Q316.17-8.35 319.72-10.65L319.72-10.65Q320.37-11.05 320.87-11.05L320.87-11.05ZM303.22-4.8Q304.37-4.8 305.42-6.2 306.47-7.6 306.92-10.2L306.92-10.2 308.52-18.75Q306.47-18.7 304.72-17.18 302.97-15.65 301.92-13.15 300.87-10.65 300.87-7.85L300.87-7.85Q300.87-6.3 301.49-5.55 302.12-4.8 303.22-4.8L303.22-4.8ZM299.07 17.9Q300.32 17.9 301.89 14.9 303.47 11.9 304.92 5.35L304.92 5.35Q301.07 8.65 299.37 11.3 297.67 13.95 297.67 15.95L297.67 15.95Q297.67 16.8 297.99 17.35 298.32 17.9 299.07 17.9L299.07 17.9Z" opacity="1" transform="matrix(1,0,0,1,0,0)" fill="#77d4fc" class="wordmark-text-0" data-fill-palette-color="primary" id="text-0"></path></svg></g></svg></g></svg></g></svg></g></svg></g><defs></defs></svg><rect width="395.52" height="86.45617900172115" fill="none" stroke="none" visibility="hidden"></rect></g></svg></g></svg>